<svg xmlns="http://www.w3.org/2000/svg" viewBox="0 0 1940.86 308.58"><defs><style>.cls-1{fill:#105a27;}</style></defs><g id="Layer_2" data-name="Layer 2"><g id="Layer_1-2" data-name="Layer 1"><path class="cls-1" d="M78.72,121.26l11.49,2.45c39.61,8.55,54.52,22,54.52,49.13,0,35-26.65,57-71.14,57-43,0-71.63-20.78-73.59-57H45.47c.49,12.47,12.72,21.52,29.34,21.52,14.18,0,23.71-6.6,23.71-16.38,0-8.8-7.57-13.69-28.6-18.09l-10.76-2.2C22,150.11,4.4,133.73,4.4,107.57c0-32.52,26.89-54.76,67.23-54.76,38.87,0,65.52,20.78,68,53.05H96.08c-1.71-11.25-11-18.09-25.18-18.09-12.71,0-21.27,5.86-21.27,15.15C49.63,112,57.45,116.62,78.72,121.26Z"/><path class="cls-1" d="M319,226.87H273.57L264.52,198H202.91l-9,28.84H148.39L208.05,55.74h51.34Zm-63.32-61.6-22-70.9-22,70.9Z"/><path class="cls-1" d="M487,55.74V226.87h-51.1l-56-99v99H334.68V55.74h51.1l56,99.26V55.74Z"/><path class="cls-1" d="M650.3,55.74V92.41H601.16V226.87H554V92.41H504.83V55.74Z"/><path class="cls-1" d="M715.32,92.41V123h64.55v34.72H715.32V190.2h74.32v36.67H668.14V55.74h121.5V92.41ZM765.44,0l-24.2,38.63H714.59L729.75,0Z"/><path class="cls-1" d="M998.67,55.74V92.41H949.53V226.87H902.34V92.41H853.2V55.74Z"/><path class="cls-1" d="M1180.31,141.31c0,53.29-35.45,88.5-88.74,88.5s-89-35.21-89-88.5,35.69-88.5,89-88.5S1180.31,88,1180.31,141.31Zm-48.16,0c0-31.3-15.65-50.85-40.58-50.85-25.18,0-40.83,19.55-40.83,50.85s15.65,50.85,40.83,50.85C1116.5,192.16,1132.15,172.6,1132.15,141.31Z"/><path class="cls-1" d="M1353.15,55.74V226.87h-51.09l-56-99v99h-45.23V55.74h51.1l56,99.26V55.74Z"/><path class="cls-1" d="M1378.57,226.87V55.74h47.19V226.87Z"/><path class="cls-1" d="M1561.44,226.14a90,90,0,0,1-26.16,3.67c-53.54,0-89-35.21-89-88.5s35.7-88.5,89-88.5S1624,88,1624,141.31c0,29.09-10.76,52.8-28.85,68.21l13,18.33-31.05,20.05Zm-8.31-76.76,15.4,21.75c4.89-7.58,7.33-17.84,7.33-29.82,0-31.3-15.64-50.85-40.58-50.85-25.18,0-40.83,19.55-40.83,50.85,0,27.87,12.72,46.45,33.5,49.87a42.24,42.24,0,0,0,9.53-.24l-15.4-21.52Z"/><path class="cls-1" d="M1793.93,55.74V163.55c0,40.1-29.58,66.26-74.81,66.26-45,0-74.56-26.16-74.56-66.26V55.74h47.18V161.35c0,20.54,9.78,31.54,27.38,31.54,17.85,0,27.63-11,27.63-31.54V55.74Z"/><path class="cls-1" d="M1866.54,92.41V123h64.54v34.72h-64.54V190.2h74.32v36.67h-121.5V55.74h121.5V92.41Z"/><path class="cls-1" d="M1690.64,285.2c0,9.74-5.87,15.44-16,15.44h-12.26V269.76h12.26C1685.17,269.76,1690.64,275.09,1690.64,285.2Zm-8.78,0c0-6-2.69-8.83-8.34-8.83h-2.65V294h2.65C1678.9,294,1681.86,290.89,1681.86,285.2Z"/><path class="cls-1" d="M1716.75,290.84h-15.66c0,2.91,1.59,4.72,4.28,4.72a3.51,3.51,0,0,0,3.53-2.2h7.72c-.88,4.67-5.64,7.8-11.42,7.8-7.32,0-12-4.8-12-12s4.55-11.95,11.92-11.95,11.68,4.67,11.68,12.22Zm-7.76-4.41c-.31-2.34-1.68-3.7-3.84-3.7a3.81,3.81,0,0,0-4,3.7Z"/><path class="cls-1" d="M1719.85,277.78h7.32l.44,3.31a7.86,7.86,0,0,1,7.1-3.83c6.44,0,9.49,5.6,9.49,11.91s-3.18,11.91-9.49,11.91a7.8,7.8,0,0,1-7-3.84v11.34h-7.85Zm12,17.43c2.6,0,4.28-2.38,4.28-6s-1.68-6-4.28-6-4.37,2.29-4.37,6S1729.2,295.21,1731.89,295.21Z"/><path class="cls-1" d="M1747.16,292.78v-15h7.89v12.84c0,2.82,1,4.1,3.09,4.1,2.25,0,3.44-1.63,3.44-5v-12h7.9v22.86h-7.37l-.44-3.36a7.83,7.83,0,0,1-7,3.88C1749.85,301.16,1747.16,298.12,1747.16,292.78Z"/><path class="cls-1" d="M1772.92,271.34a4.37,4.37,0,1,1,4.37,4.24A4.2,4.2,0,0,1,1772.92,271.34Zm.4,29.3V277.78h7.89v22.86Z"/><path class="cls-1" d="M1796,286.39l1.63.31c5.73,1.05,7.81,2.82,7.81,6.48,0,5-4,8-10.55,8s-10.45-2.91-10.94-7.76h7.63c.09,1.37,1.46,2.38,3.4,2.38,1.59,0,2.65-.7,2.65-1.76s-.88-1.46-3.93-2l-1.5-.27c-5.16-1-7.63-3.17-7.63-6.88,0-4.58,4-7.58,10-7.58,5.87,0,9.75,2.86,10.11,7.45h-7.06c-.22-1.32-1.37-2.16-3.05-2.16-1.45,0-2.51.75-2.51,1.76S1793,285.77,1796,286.39Z"/><path class="cls-1" d="M1816.51,275.23l7.94-5.47h6.44v30.88H1823V277.87l-6.53,4.46Z"/><path class="cls-1" d="M1862,284.71c0,10.19-5.07,16.45-13.23,16.45-6.31,0-11.12-3.75-11.83-8.64h7.64a4,4,0,0,0,4,2.69c3.67,0,6-3.44,6-9.13-1.28,2.56-4.06,4.45-8,4.45-5.74,0-10.11-4-10.11-10.27,0-6.67,4.86-11,12.22-11C1857.18,269.23,1862,274.83,1862,284.71Zm-13.28-9.26a4.52,4.52,0,0,0-4.67,4.72,4.67,4.67,0,0,0,4.72,4.81,4.77,4.77,0,0,0,0-9.53Z"/><path class="cls-1" d="M1890.84,284.71c0,10.19-5.07,16.45-13.23,16.45-6.31,0-11.12-3.75-11.82-8.64h7.63a4,4,0,0,0,4.06,2.69c3.66,0,6-3.44,6-9.13-1.28,2.56-4.06,4.45-8,4.45-5.74,0-10.1-4-10.1-10.27,0-6.67,4.85-11,12.22-11C1886,269.23,1890.84,274.83,1890.84,284.71Zm-13.27-9.26a4.53,4.53,0,0,0-4.68,4.72,4.67,4.67,0,0,0,4.72,4.81,4.77,4.77,0,0,0,0-9.53Z"/><path class="cls-1" d="M1902,291.55a4.82,4.82,0,1,0,4.72-6.18,5,5,0,0,0-4.36,2.38h-7.46l1.68-18h20.2V276h-14.16l-.53,6.66a8.25,8.25,0,0,1,6.62-2.82c6.09,0,10.28,4.14,10.28,10.19,0,6.66-5,11.11-12.4,11.11-6.88,0-11.73-3.75-12.09-9.61Z"/></g></g></svg>